<?xml version="1.0" standalone="no"?><!DOCTYPE svg PUBLIC "-//W3C//DTD SVG 1.1//EN" "http://www.w3.org/Graphics/SVG/1.1/DTD/svg11.dtd"><svg t="1572599269691" class="icon" viewBox="0 0 1072 1024" version="1.1" xmlns="http://www.w3.org/2000/svg" p-id="1047" xmlns:xlink="http://www.w3.org/1999/xlink" width="209.375" height="200"><defs><style type="text/css"></style></defs><path d="M888.808 160.914H237.592c-12.726 0-23.04 12.02-23.04 26.82 0 14.799 10.314 26.818 23.04 26.818h651.216c12.726 0 23.04-12.02 23.04-26.819s-10.29-26.819-23.04-26.819z" p-id="1048"></path><path d="M922.819 12.288A56.808 56.808 0 0 0 887.515 0H185.173c-12.8 0-24.99 4.242-35.133 12.166a63.317 63.317 0 0 0-20.772 28.843L0 302.933v5.437c0 125.733 93.135 228.011 207.604 228.011 66.438 0 126.708-34.23 165.473-90.99 38.766 56.76 99.036 90.99 165.498 90.99 64.756 0 124.343-33.06 163.28-87.869 38.936 54.808 98.499 87.869 163.279 87.869 114.468 0 207.628-102.278 207.628-228.01v-5.438L943.47 41.082a62.562 62.562 0 0 0-20.627-28.77z m-57.71 477.672c-59.635 0-114.224-36.864-142.433-96.183-0.439-0.975-1.268-1.585-1.829-2.438-0.877-1.341-1.682-2.633-2.828-3.804-1.17-1.17-2.511-2.023-3.9-2.925-0.805-0.537-1.39-1.317-2.293-1.756-0.365-0.195-0.78-0.146-1.146-0.292-1.56-0.659-3.194-0.927-4.876-1.22-1.316-0.243-2.609-0.609-3.925-0.609-1.414 0-2.755 0.366-4.17 0.634-1.633 0.292-3.169 0.56-4.68 1.195-0.39 0.146-0.78 0.097-1.146 0.292-0.927 0.439-1.512 1.22-2.317 1.756a21.016 21.016 0 0 0-3.9 2.95c-1.122 1.146-1.951 2.438-2.804 3.754-0.585 0.854-1.39 1.488-1.829 2.438-28.209 59.344-82.822 96.183-142.482 96.183-61.465 0-116.81-38.473-144.433-100.425-0.439-1.024-1.292-1.707-1.877-2.633-0.902-1.463-1.707-2.926-2.975-4.17-1.17-1.194-2.584-1.95-3.95-2.852-0.975-0.634-1.706-1.536-2.803-2.023-0.195-0.074-0.463-0.05-0.659-0.147-1.584-0.658-3.267-0.829-4.924-1.121-1.317-0.244-2.585-0.658-3.877-0.658-1.268 0-2.536 0.438-3.852 0.658-1.658 0.292-3.34 0.487-4.925 1.121-0.22 0.098-0.463 0.073-0.658 0.147-1.098 0.487-1.829 1.39-2.804 2.023-1.366 0.878-2.804 1.658-3.974 2.853-1.22 1.219-2.048 2.706-2.926 4.145-0.61 0.95-1.463 1.633-1.902 2.681C324.39 451.462 269.044 489.96 207.58 489.96c-87.43 0-158.841-78.605-161.353-176.275L171.252 60.392l1.219-2.926a17.603 17.603 0 0 1 5.754-8.509 11.19 11.19 0 0 1 6.948-2.511h702.342c2.536 0 4.828 0.804 7.12 2.633 3.17 2.414 4.778 5.851 5.607 8.29l126.294 256.316C1024 411.355 952.564 489.96 865.134 489.96z" p-id="1049"></path><path d="M942.446 482.743c-12.727 0-23.04 15.604-23.04 34.84V922.99c0 7.314-1.78 14.092-4.925 19.066-3.097 4.754-7.07 7.387-11.215 7.387h-733.72c-4.146 0-8.12-2.584-11.192-7.363a35.889 35.889 0 0 1-4.973-19.09V517.583c0-19.26-10.314-34.84-23.065-34.84-12.727 0-23.04 15.604-23.04 34.84V922.99c0 25.478 6.388 49.493 17.969 67.535 11.776 18.456 27.526 28.599 44.3 28.599h733.72c16.726 0 32.427-10.143 44.325-28.623 11.557-18.14 17.896-42.106 17.896-67.536V517.608c0-19.261-10.313-34.84-23.04-34.84z" p-id="1050"></path></svg>