<?xml version="1.0" standalone="no"?><!DOCTYPE svg PUBLIC "-//W3C//DTD SVG 1.1//EN" "http://www.w3.org/Graphics/SVG/1.1/DTD/svg11.dtd"><svg t="1572580067267" class="icon" viewBox="0 0 1072 1024" version="1.1" xmlns="http://www.w3.org/2000/svg" p-id="4779" xmlns:xlink="http://www.w3.org/1999/xlink" width="209.375" height="200"><defs><style type="text/css"></style></defs><path d="M888.807619 160.914286H237.592381c-12.726857 0-23.04 12.01981-23.04 26.819047 0 14.799238 10.313143 26.819048 23.04 26.819048h651.215238c12.726857 0 23.04-12.01981 23.04-26.819048 0-14.799238-10.288762-26.819048-23.04-26.819047z" fill="#605E60" p-id="4780"></path><path d="M922.819048 12.288A56.807619 56.807619 0 0 0 887.515429 0H185.173333C172.373333 0 160.182857 4.242286 150.040381 12.166095a63.317333 63.317333 0 0 0-20.772571 28.842667L0 302.933333v5.436953C0 434.102857 93.135238 536.380952 207.60381 536.380952c66.438095 0 126.70781-34.230857 165.473523-90.989714C411.843048 502.150095 472.112762 536.380952 538.575238 536.380952c64.75581 0 124.342857-33.060571 163.279238-87.868952C740.790857 503.320381 800.353524 536.380952 865.133714 536.380952 979.602286 536.380952 1072.761905 434.102857 1072.761905 308.370286v-5.436953l-129.292191-261.851428a62.561524 62.561524 0 0 0-20.626285-28.769524z m-57.709715 477.671619c-59.63581 0-114.224762-36.864-142.433523-96.182857-0.438857-0.975238-1.26781-1.584762-1.828572-2.438095-0.877714-1.340952-1.682286-2.633143-2.82819-3.803429-1.170286-1.170286-2.511238-2.023619-3.900953-2.925714-0.804571-0.536381-1.389714-1.316571-2.291809-1.755429-0.365714-0.195048-0.78019-0.146286-1.145905-0.292571-1.560381-0.658286-3.193905-0.926476-4.876191-1.219048-1.316571-0.24381-2.608762-0.609524-3.925333-0.609524-1.414095 0-2.755048 0.365714-4.169143 0.633905-1.633524 0.292571-3.169524 0.560762-4.681143 1.194667-0.390095 0.146286-0.78019 0.097524-1.145904 0.292571-0.926476 0.438857-1.511619 1.219048-2.316191 1.755429a21.016381 21.016381 0 0 0-3.900952 2.950095c-1.121524 1.145905-1.950476 2.438095-2.80381 3.754667-0.585143 0.853333-1.389714 1.487238-1.828571 2.438095-28.208762 59.343238-82.822095 96.182857-142.482286 96.182857-61.464381 0-116.809143-38.473143-144.432762-100.425143-0.438857-1.024-1.29219-1.706667-1.877333-2.633143-0.902095-1.462857-1.706667-2.925714-2.974476-4.169142-1.170286-1.194667-2.584381-1.950476-3.949715-2.852572-0.975238-0.633905-1.706667-1.536-2.803809-2.023619-0.195048-0.073143-0.463238-0.048762-0.658286-0.146286-1.584762-0.658286-3.267048-0.828952-4.924952-1.121523-1.316571-0.24381-2.584381-0.658286-3.876572-0.658286-1.26781 0-2.535619 0.438857-3.85219 0.658286-1.657905 0.292571-3.34019 0.487619-4.924952 1.121523-0.219429 0.097524-0.463238 0.073143-0.658286 0.146286-1.097143 0.487619-1.828571 1.389714-2.80381 2.023619-1.365333 0.877714-2.80381 1.657905-3.974095 2.852572-1.219048 1.219048-2.048 2.706286-2.925714 4.144761-0.609524 0.950857-1.462857 1.633524-1.901715 2.681905-27.623619 61.927619-82.968381 100.425143-144.432761 100.425143-87.430095 0-158.841905-78.60419-161.353143-176.274286L171.25181 60.391619l1.219047-2.925714a17.603048 17.603048 0 0 1 5.753905-8.508953 11.190857 11.190857 0 0 1 6.948571-2.511238h702.342096c2.535619 0 4.827429 0.804571 7.119238 2.633143 3.169524 2.413714 4.778667 5.851429 5.607619 8.289524l126.293333 256.316952c-2.535619 97.670095-73.97181 176.274286-161.401905 176.274286z" fill="#605E60" p-id="4781"></path><path d="M942.445714 482.742857c-12.726857 0-23.04 15.60381-23.04 34.840381v405.406476c0 7.314286-1.77981 14.09219-4.924952 19.065905-3.096381 4.754286-7.070476 7.387429-11.215238 7.387429H169.545143c-4.144762 0-8.118857-2.584381-11.190857-7.363048a35.888762 35.888762 0 0 1-4.973715-19.090286V517.583238c0-19.260952-10.313143-34.840381-23.064381-34.840381-12.726857 0-23.04 15.60381-23.04 34.840381v405.406476c0 25.478095 6.38781 49.493333 17.968762 67.535238 11.776 18.456381 27.526095 28.598857 44.300191 28.598858h733.720381c16.725333 0 32.426667-10.142476 44.324571-28.623239 11.556571-18.139429 17.895619-42.105905 17.895619-67.535238V517.607619c0-19.260952-10.313143-34.840381-23.04-34.840381z" fill="#605E60" p-id="4782"></path></svg>