<?xml version="1.0" standalone="no"?><!DOCTYPE svg PUBLIC "-//W3C//DTD SVG 1.1//EN" "http://www.w3.org/Graphics/SVG/1.1/DTD/svg11.dtd"><svg t="1572580088870" class="icon" viewBox="0 0 1024 1024" version="1.1" xmlns="http://www.w3.org/2000/svg" p-id="4893" xmlns:xlink="http://www.w3.org/1999/xlink" width="200" height="200"><defs><style type="text/css"></style></defs><path d="M930.254574 1024H87.844509c-25.356172 0-52.711581-13.531419-68.437285-33.328738-15.701322-19.748557-22.284175-46.323776-18.236939-74.946994l0.487619-1.56038c23.332555-118.710772 80.603371-223.329364 165.253977-303.518259 85.674605-80.700895 191.097768-128.585051 304.639782-136.89895h2.511236c92.257458 0 171.32483 15.091799 242.297732 45.811777 18.748939 7.801899 28.379408 12.995038 37.497878 17.700558l9.11847 4.68114 1.535999 1.023999c135.314189 79.652515 226.572029 211.382706 256.975054 370.151355 7.094852 28.111218-1.023999 58.294816-22.308555 80.164514l-2.023618 2.09676c-22.796174 18.724558-45.10473 28.623218-66.901285 28.623218zM61.488718 925.086547c-0.487619 5.72952-1.023999 17.700559 5.071234 25.502458l0.487619 0.53638c3.559617 4.68114 13.702085 9.874279 20.796938 9.874279h842.410065c6.582852 0 16.213322-4.68114 26.35579-13.531419 5.071234-5.72952 7.094852-13.019419 5.583234-19.260938l-0.511999-2.608761c-26.355791-141.06809-106.959162-257.682102-227.084028-328.996336-3.535236-1.56038-6.582852-3.65714-9.63047-5.21752-8.60647-4.68114-16.213322-8.850279-31.939025-15.091799h-0.487618c-62.85405-27.599218-134.338952-41.130637-217.453559-41.130637-99.35231 7.801899-191.585387 49.468917-267.117524 120.783152-74.508137 71.314235-125.196101 164.498168-146.480657 269.165522zM509.049541 531.017495c-142.433422 0-258.511053-119.222772-258.511053-265.508382C250.538488 119.223503 366.616119 0.000731 509.073922 0.000731a254.536961 254.536961 0 0 1 183.490917 77.555755c48.664346 49.980917 75.507756 116.614012 75.507755 188.464627a267.215047 267.215047 0 0 1-76.019755 187.416247c-49.663965 49.444536-114.541632 77.555754-182.978917 77.555754z m0-469.040427c-108.982779 0-197.680621 91.111554-197.680621 203.020046 0 111.932872 88.697841 203.044426 197.680621 203.044426 107.44678 0 197.680621-93.183933 197.680621-203.044426 0.487619-113.468871-86.674224-203.020045-197.680621-203.020046z" fill="" p-id="4894"></path></svg>